# xmcd CD database file
#
# Track frame offsets:
#	150
#	10907
#	22588
#	37560
#	48602
#	65283
#	75270
#	91436
#	108427
#	119152
#	132084
#	146501
#	160674
#	170689
#	182831
#
# Disc length: 2560 seconds
#
# Revision: 0
# Processed by: cddbd v1.5.1PL0 Copyright (c) Steve Scherf et al.
# Submitted via: CDex 1.40Release
#
DISCID=b509fe0f
DTITLE=Chris Casello - Done Moved ON
DYEAR=2005
DGENRE=Country
TTITLE0=Chris' Guitar Boogie
TTITLE1=All Messed Up
TTITLE2=Shame On You
TTITLE3=What's A Girl Like You ...?
TTITLE4=My Window Faces The South
TTITLE5=Moonlight On The Bayou
TTITLE6=Before You Lost Your Mind w/Kenneth Brian
TTITLE7=Done Moved On
TTITLE8=Rockin' Daddy
TTITLE9=Twin Guitar Special
TTITLE10=Juke Joint Johnny
TTITLE11=So Round So Firm So Fully Packed
TTITLE12=Mr. Wrong w/ Kenneth Brian
TTITLE13=Kiss Me Baby
TTITLE14=Cannon Ball Rag
EXTD=YEAR: 2005 ID3G: 2
EXTT0=
EXTT1=
EXTT2=
EXTT3=
EXTT4=
EXTT5=
EXTT6=
EXTT7=
EXTT8=
EXTT9=
EXTT10=
EXTT11=
EXTT12=
EXTT13=
EXTT14=
PLAYORDER=
